<?xml version="1.0" standalone="no"?>
<!DOCTYPE svg PUBLIC "-//W3C//DTD SVG 1.1//EN" "http://www.w3.org/Graphics/SVG/1.1/DTD/svg11.dtd" >
<svg xmlns="http://www.w3.org/2000/svg">
<metadata>
This is a custom SVG webfont generated by Font Squirrel.
Copyright   :  ITC Franklin Gothic is a trademark of The International Typeface Corporation which may be registered in certain jurisdictions Portions copyright Microsoft Corporation  All rights reserved
Designer    : Victor Caruso  Font Bureau
Foundry     : International Typeface Corporation
Foundry URL : httpwwwitcfontscom
</metadata>
<defs>
<font id="webfontFVM2bdPj" horiz-adv-x="1046" >
<font-face units-per-em="2048" ascent="1638" descent="-410" />
<missing-glyph horiz-adv-x="380" />
<glyph unicode=" "  horiz-adv-x="380" />
<glyph unicode="&#x09;" horiz-adv-x="380" />
<glyph unicode="&#xa0;" horiz-adv-x="380" />
<glyph unicode="!" horiz-adv-x="696" d="M170 1366h358l-88 -958h-184zM209 0v301h278v-301h-278z" />
<glyph unicode="&#x22;" d="M201 1366h264l-39 -600h-186zM584 1366h264l-37 -600h-188z" />
<glyph unicode="#" d="M20 420l25 166h184l33 219h-184l24 166h185l59 395h178l-59 -395h201l59 395h178l-59 -395h182l-25 -166h-184l-33 -219h185l-25 -166h-184l-64 -420h-176l64 420h-203l-64 -420h-178l66 420h-185zM406 586h202l33 219h-203z" />
<glyph unicode="$" d="M74 387l237 64q35 -201 219 -201q88 0 127 43q41 45 41 102q0 61 -41 97q-37 31 -182 81q-123 41 -199 89q-72 43 -114 120q-45 80 -45 181q0 135 80 241q82 109 249 133v142h154v-142q258 -31 336 -293l-213 -86q-61 178 -193 179q-66 0 -104.5 -39t-38.5 -99 q0 -55 39 -87.5t162 -77.5q129 -45 215 -95q80 -45 125 -123q47 -82 47 -184q0 -160 -96 -268q-94 -106 -279 -125v-184h-154v182q-302 31 -372 350z" />
<glyph unicode="%" horiz-adv-x="1359" d="M55 1022q0 170 72 260t199 90t198.5 -90t71.5 -260q0 -172 -71.5 -262t-198.5 -90q-123 0 -197 88q-74 89 -74 264zM250 1022q0 -125 20 -166q16 -35 55.5 -35t57.5 41q18 43 18 160q0 123 -20 164q-16 35 -55 35t-58 -39q-18 -40 -18 -160zM283 0l645 1366h153 l-643 -1366h-155zM766 344q0 176 72 262q74 88 196 88q125 0 199 -88q72 -86 72 -262q0 -172 -72 -262q-70 -88 -199 -88q-125 0 -196.5 90t-71.5 260zM961 344q0 -127 18 -164t55 -37q41 0 60 43q16 39 16 158q0 127 -18.5 164t-57.5 37t-57 -41q-16 -35 -16 -160z" />
<glyph unicode="&#x26;" horiz-adv-x="1325" d="M94 383q0 262 309 393q-127 176 -127 305q0 127 101 215q102 90 260 90q162 0 256 -94t94 -231q0 -207 -235 -330l188 -250q68 115 107 299l223 -39q-57 -248 -187 -438q72 -74 140 -74q23 0 47 2v-231q-51 -14 -105 -14q-143 0 -266 129q-166 -135 -371 -135 q-225 0 -329.5 120.5t-104.5 282.5zM379 399q0 -88 51 -141t143 -53q111 0 193 80l-248 333q-139 -84 -139 -219zM545 1083q0 -70 90 -194q123 68 123 186q0 49 -27 82q-29 35 -80 35q-49 0 -78 -31q-28 -33 -28 -78z" />
<glyph unicode="'" horiz-adv-x="696" d="M217 1366h264l-39 -600h-186z" />
<glyph unicode="(" horiz-adv-x="696" d="M102 512q0 489 248 854h221q-209 -387 -209 -854t209 -854h-221q-248 367 -248 854z" />
<glyph unicode=")" horiz-adv-x="696" d="M127 -342q96 174 151.5 403.5t55.5 450.5q0 218 -55 449q-55 233 -152 405h219q248 -371 248 -854q0 -479 -248 -854h-219z" />
<glyph unicode="*" d="M172 903l223 98l-223 101l84 151l207 -139l-27 252h172l-24 -252l207 139l83 -151l-223 -101l223 -98l-83 -151l-207 139l24 -252h-172l27 252l-207 -139z" />
<glyph unicode="+" d="M104 573v218h308v311h225v-311h305v-218h-305v-309h-225v309h-308z" />
<glyph unicode="," horiz-adv-x="522" d="M123 0v301h278v-274l-170 -351h-108l131 324h-131z" />
<glyph unicode="-" horiz-adv-x="557" d="M76 408v221h407v-221h-407z" />
<glyph unicode="." horiz-adv-x="522" d="M123 0v301h278v-301h-278z" />
<glyph unicode="/" horiz-adv-x="1079" d="M-41 -342l834 1708h188l-831 -1708h-191z" />
<glyph unicode="0" d="M68 666q0 373 106.5 546.5t347.5 173.5q252 0 354.5 -182t102.5 -506q0 -371 -106.5 -544.5t-350.5 -173.5q-252 0 -352 180q-102 182 -102 506zM383 682q0 -330 31 -408q31 -76 108 -75q72 0 107 71q33 68 33 412q0 317 -27 399q-29 86 -113 86q-72 0 -106 -73 q-33 -72 -33 -412z" />
<glyph unicode="1" d="M205 0v223h229v805q-98 -104 -229 -170v266q184 95 301 252h227v-1153h228v-223h-756z" />
<glyph unicode="2" d="M57 0v266q369 315 467 455q94 135 94 252q0 170 -129 170q-76 0 -112 -68q-35 -63 -47 -190l-273 53q68 449 453 448q207 0 315 -116q109 -119 109 -283q0 -168 -121 -336q-119 -164 -451 -385h590l-20 -266h-875z" />
<glyph unicode="3" d="M33 383l266 43q20 -203 176 -203q74 0 117 49.5t43 139.5q0 186 -209 186h-84v219h84q61 0 104 14q41 14 64 52q25 40 24 104q0 166 -137 166q-119 0 -155 -168l-263 49q104 352 451 352q190 0 297 -98t107 -268q0 -213 -203 -303q229 -74 229 -326q0 -203 -127 -307 q-126 -104 -319 -104q-176 0 -305 92t-160 311z" />
<glyph unicode="4" d="M51 322v233l465 831h326v-831h153v-233h-153v-322h-299v322h-492zM262 539h303v561z" />
<glyph unicode="5" d="M70 365l272 45q20 -186 176 -187q170 0 170 221q0 98 -45 158q-46 61 -129 62q-111 0 -149 -107l-236 45l47 764h731l-28 -268h-484l-16 -307q86 117 233.5 116.5t255.5 -106.5q111 -109 111 -340q0 -238 -127 -361q-123 -121 -332 -120q-188 0 -311 104 q-121 103 -139 281z" />
<glyph unicode="6" d="M104 666q0 371 125 544q127 176 346 176q162 0 267 -92q106 -94 139 -270l-244 -74q-33 217 -170 217q-86 0 -135 -88q-45 -84 -49 -372q84 154 250 153q150 0 254 -112q102 -111 102 -316q0 -221 -121 -338q-117 -115 -311 -114q-453 0 -453 686zM395 414 q0 -115 41 -164q43 -53 111 -53q152 0 151 235q0 209 -147 209q-156 0 -156 -227z" />
<glyph unicode="7" d="M119 1098l22 268h811v-231q-326 -420 -331 -1135h-326q10 629 399 1098h-575z" />
<glyph unicode="8" d="M59 354q0 98 47 176q45 74 177 144q-184 117 -185 319q0 158 109 277q109 117 328 116q205 0 311 -96q102 -94 102 -254q0 -190 -174 -291q211 -123 211 -354q0 -172 -121 -293q-119 -119 -354 -118q-227 0 -338 104q-113 106 -113 270zM326 375q0 -86 51 -137.5 t143 -51.5q84 0 135 47q49 46 50 111q0 57 -41 107q-43 51 -207 124q-131 -79 -131 -200zM381 1042q0 -78 70 -127q72 -51 143 -79q96 90 96 188q0 76 -39 121q-41 47 -112 47q-70 0 -113 -43q-45 -46 -45 -107z" />
<glyph unicode="9" d="M57 940q0 182 109 315q106 131 323 131q190 0 289 -102q96 -100 131 -258q33 -152 33 -319q0 -727 -459 -727q-319 0 -395 331l262 51q25 -166 146 -165q168 0 168 389v43q-80 -123 -238 -123q-180 0 -274 135q-95 133 -95 299zM348 958q0 -209 151.5 -208.5t151.5 208.5 q0 100 -41 154q-43 55 -114 55q-61 0 -104.5 -51.5t-43.5 -157.5z" />
<glyph unicode=":" horiz-adv-x="522" d="M123 0v301h278v-301h-278zM123 709v301h278v-303z" />
<glyph unicode=";" horiz-adv-x="522" d="M123 0v301h278v-274l-170 -351h-108l131 324h-131zM123 709v301h278v-303z" />
<glyph unicode="&#x37e;" horiz-adv-x="522" d="M123 0v301h278v-274l-170 -351h-108l131 324h-131zM123 709v301h278v-303z" />
<glyph unicode="&#x3c;" d="M80 555v256l887 465v-303l-564 -291l564 -291v-303z" />
<glyph unicode="=" d="M104 408v215h838v-215h-838zM104 741v217h838v-217h-838z" />
<glyph unicode="&#x3e;" d="M80 88v305l563 289l-561 293l-2 301l887 -465v-256z" />
<glyph unicode="?" horiz-adv-x="976" d="M59 932q2 201 111 327.5t307 126.5q211 0 307.5 -114.5t96.5 -267.5q0 -119 -47 -201q-43 -76 -154 -176q-80 -70 -94 -105q-16 -39 -17 -131h-239v45q0 125 12 180q10 47 104 142q78 78 103 125q29 53 29 127q0 66 -35 100q-33 33 -82 33q-145 0 -146 -246zM315 0v291 h269v-291h-269z" />
<glyph unicode="@" horiz-adv-x="1290" d="M39 678q0 313 176 524q174 207 465 207q274 0 424 -172q152 -174 151 -440q0 -225 -108 -375q-106 -145 -246 -146q-119 0 -151 115q-61 -117 -177 -117q-94 0 -151 93q-59 94 -60 245q0 190 87 316q86 127 204 127q98 0 148 -107l12 92h139l-57 -417q-12 -80 -12 -121 q0 -72 45 -72q61 0 110 102.5t49 243.5q0 227 -106 354q-109 129 -301 130q-201 0 -334 -154q-131 -152 -131 -424q0 -256 127 -413.5t360 -157.5q190 0 355 110l55 -133q-197 -129 -420 -129q-295 0 -475 197q-178 192 -178 522zM549 614q0 -154 78 -153q106 0 106 270 q0 137 -69 137q-47 0 -82 -69q-33 -66 -33 -185z" />
<glyph unicode="A" d="M-41 0l412 1366h301l391 -1366h-307l-70 283h-383l-67 -283h-277zM360 516h271l-137 557z" />
<glyph unicode="B" horiz-adv-x="1150" d="M129 0v1366h467q156 0 246 -27q86 -25 141 -114.5t55 -218.5q0 -227 -194 -293q231 -82 231 -336q0 -137 -61 -225q-63 -90 -155.5 -121t-262.5 -31h-467zM418 236h145q207 0 207 178q0 100 -51 139q-53 41 -156 41h-145v-358zM418 813h96q145 0 182 53q37 51 37 119 q0 61 -37 110.5t-159 49.5h-119v-332z" />
<glyph unicode="C" horiz-adv-x="1116" d="M80 682q0 330 131 516q133 188 389 188q428 0 465 -528l-274 -20q-12 305 -191 305q-94 0 -149.5 -98.5t-55.5 -380.5q0 -252 51.5 -346.5t153.5 -94.5q164 0 193 275l276 -19q-16 -225 -139 -360q-127 -139 -334 -139q-252 0 -383 186q-133 188 -133 516z" />
<glyph unicode="D" horiz-adv-x="1150" d="M129 0v1366h324q203 0 340 -57q129 -53 211 -209q80 -150 79 -412q0 -184 -49 -326q-51 -145 -124.5 -225t-176 -108.5t-246.5 -28.5h-358zM428 236h51q104 0 162 38q55 37 90 140q35 100 35 288q0 174 -37 269q-35 90 -94 127q-53 33 -156 32h-51v-894z" />
<glyph unicode="E" horiz-adv-x="976" d="M129 0v1366h829v-236h-530v-317h414v-233h-414v-336h530v-244h-829z" />
<glyph unicode="F" horiz-adv-x="905" d="M129 0v1366h809v-236h-510v-356h393v-233h-393v-541h-299z" />
<glyph unicode="G" horiz-adv-x="1185" d="M80 655q0 338 135 534.5t397 196.5q416 0 469 -468l-270 -44q-29 268 -193 269q-98 0 -161 -101q-61 -98 -62 -374q0 -242 60 -344q57 -100 174 -101q182 0 182 271h-203v233h473v-727h-127l-39 156q-109 -176 -329 -176q-236 0 -369 182q-137 186 -137 493z" />
<glyph unicode="H" horiz-adv-x="1185" d="M129 0v1366h299v-553h330v553h299v-1366h-299v557h-330v-557h-299z" />
<glyph unicode="I" horiz-adv-x="557" d="M129 0v1366h299v-1366h-299z" />
<glyph unicode="J" horiz-adv-x="661" d="M-10 0v252q66 -14 121 -14q82 0 104 41q27 47 27 180v907h299v-907q0 -172 -25 -269q-25 -94 -106 -153q-78 -57 -238 -57q-73 0 -182 20z" />
<glyph unicode="K" horiz-adv-x="1079" d="M129 0v1366h299v-569l334 569h303l-342 -504l371 -862h-312l-239 629l-115 -164v-465h-299z" />
<glyph unicode="L" horiz-adv-x="870" d="M129 0v1366h299v-1110h440v-256h-739z" />
<glyph unicode="M" horiz-adv-x="1533" d="M129 0v1366h440l193 -844l217 844h428v-1366h-283v1143l-278 -1143h-217l-256 1143v-1143h-244z" />
<glyph unicode="N" horiz-adv-x="1150" d="M119 0v1366h332l352 -850v850h231v-1366h-268l-416 987v-987h-231z" />
<glyph unicode="O" horiz-adv-x="1150" d="M80 682q0 705 495 704q242 0 369 -176t127 -528q0 -702 -496 -702q-244 0 -370 178q-125 176 -125 524zM395 682q0 -268 43 -365q43 -94 137 -94q92 0 136 90q45 96 45 369q0 276 -43 368.5t-137.5 92.5t-137.5 -92.5t-43 -368.5z" />
<glyph unicode="P" d="M129 0v1366h393q178 0 276.5 -30.5t166 -135t67.5 -262.5q0 -154 -53 -248q-55 -98 -150 -141q-96 -43 -294 -43h-107v-506h-299zM428 739h94q121 0 158 58q37 59 37 147q0 78 -29 125q-31 51 -63 61q-43 14 -103 15h-94v-406z" />
<glyph unicode="Q" horiz-adv-x="1150" d="M80 682q0 705 495 704q244 0 371 -178q125 -176 125 -514q0 -240 -55 -403q-55 -162 -195 -252q0 -58 25 -80q27 -23 74 -22q43 0 102 16v-217q-65 -18 -129 -19q-258 0 -272 265q-25 -2 -58 -2q-219 0 -352 170q-131 167 -131 532zM395 682q0 -268 43 -365 q43 -94 137 -94q92 0 136 90q45 96 45 369q0 276 -43 368.5t-137.5 92.5t-137.5 -92.5t-43 -368.5z" />
<glyph unicode="R" horiz-adv-x="1114" d="M129 0v1366h428q125 0 192.5 -12.5t135.5 -61.5q63 -45 106 -139q37 -80 37 -197q0 -254 -190 -358l249 -598h-325l-182 541h-152v-541h-299zM428 762h133q176 0 176 196q0 63 -26 111q-25 43 -60 59q-37 16 -102 17h-121v-383z" />
<glyph unicode="S" d="M33 354l262 74q49 -205 219 -205q76 0 127 41q47 39 47 107q0 49 -33 88q-35 41 -155 84q-158 55 -236 102q-82 49 -127 129q-49 86 -49 193q0 184 119 301q123 119 313 118q356 0 445 -319l-248 -94q-53 170 -195 170q-61 0 -104 -39q-39 -37 -39 -86q0 -61 45 -94 q49 -37 190 -90q139 -51 209 -97q74 -47 121 -131t47 -190q0 -190 -131 -313t-352 -123q-371 -1 -475 374z" />
<glyph unicode="T" horiz-adv-x="800" d="M-25 1110v256h852v-256h-278v-1110h-301v1110h-273z" />
<glyph unicode="U" horiz-adv-x="1185" d="M129 586v780h299v-780q0 -162 16 -232q15 -65 62 -98q45 -33 117 -33q76 0 118 37q47 39 56 98q10 68 10 228v780h250v-768q0 -236 -27 -344q-29 -115 -135 -195q-109 -80 -297 -79q-178 0 -280.5 59t-145.5 166q-43 108 -43 381z" />
<glyph unicode="V" horiz-adv-x="940" d="M-29 1366h316l211 -1040l217 1040h256l-334 -1372l-338 6z" />
<glyph unicode="W" horiz-adv-x="1464" d="M-10 1366h307l141 -946l180 946h275l168 -948l168 948h252l-293 -1372h-268l-183 948l-186 -948h-266z" />
<glyph unicode="X" horiz-adv-x="976" d="M-31 0l375 700l-334 666h334l164 -356l172 356h287l-324 -618l365 -748h-328l-201 446l-223 -446h-287z" />
<glyph unicode="Y" horiz-adv-x="905" d="M-57 1366h329l193 -500l207 500h293l-379 -788v-578h-301v578z" />
<glyph unicode="Z" horiz-adv-x="940" d="M2 0v209l576 911h-535v246h879v-215l-572 -907h588v-244h-936z" />
<glyph unicode="[" horiz-adv-x="696" d="M150 -342v1708h421v-129h-172v-1450h172v-129h-421z" />
<glyph unicode="\" horiz-adv-x="1081" d="M98 1366h191l831 -1708h-188z" />
<glyph unicode="]" horiz-adv-x="696" d="M127 -213h172v1450h-172v129h422v-1708h-422v129z" />
<glyph unicode="^" horiz-adv-x="1024" d="M31 719l311 653h340l309 -653h-268l-211 448l-211 -448h-270z" />
<glyph unicode="_" horiz-adv-x="1024" d="M0 -117h1024v-182h-1024v182z" />
<glyph unicode="`" horiz-adv-x="940" d="M199 1350l110 168l342 -316l-84 -84z" />
<glyph unicode="a" horiz-adv-x="976" d="M74 256q0 168 110.5 260t409.5 111v39q0 100 -20.5 139t-79.5 39q-106 0 -119 -156l-269 27q18 151 130 233q109 82 278 82q147 0 229 -53q86 -55 109 -127q23 -74 22 -223v-404q0 -190 17 -223h-260q-14 37 -15 156q-92 -176 -276 -176q-121 0 -193 69q-73 70 -73 207z M365 293q0 -129 94 -129q49 0 92 57.5t43 210.5v51q-125 -16 -176 -55q-53 -41 -53 -135z" />
<glyph unicode="b" horiz-adv-x="976" d="M104 0v1366h277v-451q84 109 211 109q139 0 231 -127q94 -129 95 -385q0 -252 -93 -393q-90 -139 -266 -139q-172 0 -235 151q-31 -57 -54 -131h-166zM381 420q0 -135 27 -193q25 -53 92 -53q72 0 98 76q29 80 29 254q0 168 -27 254q-25 80 -96 80q-123 0 -123 -187v-231 z" />
<glyph unicode="c" horiz-adv-x="905" d="M59 502q0 256 109 393q106 135 305 135q354 0 385 -391l-262 -10q-6 94 -31 139q-25 47 -80 47q-143 0 -143 -297q0 -172 35 -241.5t102 -69.5q109 0 117 186l262 -16q-33 -397 -395 -397q-195 0 -299.5 131t-104.5 391z" />
<glyph unicode="d" horiz-adv-x="976" d="M61 502q0 266 91 393q92 129 245 129q139 0 201 -109v451h276v-1366h-260v168q-66 -182 -229.5 -182t-243.5 141.5t-80 374.5zM352 477q0 -162 29 -229.5t92 -67.5q51 0 90 45q35 41 35 183v180q0 150 -31 198q-33 51 -92 52q-72 0 -96 -70q-27 -76 -27 -291z" />
<glyph unicode="e" horiz-adv-x="940" d="M59 489q0 262 115 401.5t303 139.5q172 0 289 -123q115 -121 115 -448h-531v-58q0 -135 37 -182q37 -45 98 -45q129 0 146 172l250 -14q-68 -352 -402 -352q-203 0 -311.5 139t-108.5 370zM352 621h262q0 6 1 16t1 12q0 195 -133 195q-131 0 -131 -223z" />
<glyph unicode="f" horiz-adv-x="591" d="M37 788v222h115q0 145 22 223q23 76 96.5 131t198.5 55q66 0 141 -10v-219q-45 4 -61 4q-82 0 -104.5 -35t-22.5 -149h178v-222h-178v-788h-270v788h-115z" />
<glyph unicode="g" horiz-adv-x="940" d="M43 -117q0 133 166 189q-133 61 -133 176q0 129 174 221q-150 74 -150 252q0 152 103 229q104 80 276 80q111 0 217 -45q12 113 54 156q43 45 135 45q41 0 78 -10v-185q-27 8 -62 8q-88 0 -106 -90q76 -82 75 -202q0 -135 -102 -220q-100 -82 -264 -81q-72 0 -131 16 q-66 -37 -66 -82q0 -39 37 -51q33 -10 203 -21q151 -9 227 -30q76 -20 125 -86q51 -68 51 -170q0 -338 -493 -338q-414 -1 -414 239zM274 -78q0 -102 234 -102q199 0 199 106q0 37 -23 64q-22 25 -55 30q-35 6 -140 13q-84 4 -124 10q-91 -41 -91 -121zM391 709 q0 -154 96 -154q49 0 70 37q23 39 23 125q0 162 -91 162q-55 0 -75 -39q-23 -41 -23 -131z" />
<glyph unicode="h" horiz-adv-x="976" d="M104 0v1366h281v-463q76 127 250 127q106 0 162 -47q61 -51 75 -121q16 -78 17 -215v-647h-283v647q0 98 -18 133q-16 31 -76 31q-58 0 -92 -31q-35 -31 -35 -141v-639h-281z" />
<glyph unicode="i" horiz-adv-x="487" d="M100 1094v278h287v-278h-287zM102 0v1010h283v-1010h-283z" />
<glyph unicode="j" horiz-adv-x="487" d="M-16 -125q14 -2 36 -2q61 0 78 31q14 29 15 137v969h282v-977q0 -166 -16 -234q-18 -78 -82 -123q-66 -47 -164 -47q-66 0 -149 15v231zM111 1094v278h286v-278h-286z" />
<glyph unicode="k" horiz-adv-x="940" d="M104 0v1366h281v-745l285 389h256l-254 -338l278 -672h-303l-158 469l-104 -141v-328h-281z" />
<glyph unicode="l" horiz-adv-x="487" d="M102 0v1366h283v-1366h-283z" />
<glyph unicode="m" horiz-adv-x="1429" d="M104 0v1010h267v-138q72 158 245 158q180 0 218 -158q68 158 245 158q100 0 158 -37q61 -39 82 -98q23 -63 22 -236v-659h-280v631q0 111 -17 147q-14 33 -71 33q-65 0 -86 -43q-20 -41 -21 -180v-588h-280v639q0 109 -17 141q-16 31 -69 31q-72 0 -92 -45 q-23 -49 -23 -178v-588h-281z" />
<glyph unicode="n" horiz-adv-x="976" d="M104 0v1010h267v-138q72 158 254 158q96 0 163 -45q63 -41 82 -113q18 -68 19 -210v-662h-283v662q0 100 -26 126q-23 23 -70 23q-76 0 -100.5 -45t-24.5 -174v-592h-281z" />
<glyph unicode="o" horiz-adv-x="940" d="M61 506q0 524 410 524q412 0 412 -524q0 -526 -412 -526q-410 0 -410 526zM352 506q0 -186 24.5 -258t94.5 -72t94 72q27 76 27 258q0 195 -27 260q-29 68 -94 68q-63 0 -90 -64q-29 -67 -29 -264z" />
<glyph unicode="p" horiz-adv-x="976" d="M104 -342v1352h261v-152q84 166 229 166q137 0 231 -125q92 -123 93 -377q0 -264 -91 -401q-90 -135 -254 -135q-115 0 -192 90v-418h-277zM381 414q0 -145 25 -189q27 -45 94 -45q66 0 96.5 59.5t30.5 280.5q0 184 -29 252q-29 66 -90 66q-55 0 -90 -41 q-37 -43 -37 -193v-190z" />
<glyph unicode="q" horiz-adv-x="976" d="M61 489q0 285 92.5 410t247.5 125q150 0 240 -145q47 49 78 131h155q-10 -82 -10 -258v-1094h-276v446q-80 -119 -207 -118q-141 0 -231 133q-89 130 -89 370zM350 528q0 -215 27 -284q25 -63 92 -64q57 0 88 53.5t31 225.5v149q0 141 -29 185q-31 45 -90 45 q-70 0 -94.5 -55.5t-24.5 -254.5z" />
<glyph unicode="r" horiz-adv-x="626" d="M104 0v1010h248v-244q68 258 240 258q18 0 47 -6v-275q-41 4 -47 5q-207 0 -207 -314v-434h-281z" />
<glyph unicode="s" horiz-adv-x="835" d="M39 281l223 34q27 -150 160 -149q113 0 113 92q0 53 -33 78q-34 25 -129 55q-175 55 -240 135q-63 78 -63 183q0 143 102 233q100 88 256 88q268 0 342 -262l-201 -61q-39 137 -147 137q-88 0 -88 -88q0 -51 33 -76q37 -27 135 -62q106 -37 170 -71q53 -31 92 -94 q37 -61 37 -144q0 -139 -103 -235q-100 -94 -280 -94q-342 0 -379 301z" />
<glyph unicode="t" horiz-adv-x="626" d="M35 788v222h110v311l275 8v-319h186v-222h-186v-370q0 -94 4 -135q2 -25 31 -50q23 -20 86 -20q6 0 22.5 -0.5t26.5 -0.5q16 0 31 1v-213q-90 -20 -172 -20q-129 0 -197 49t-86 123q-20 82 -21 233v403h-110z" />
<glyph unicode="u" horiz-adv-x="976" d="M90 352v658h283v-648q0 -100 16 -131q18 -33 80 -32q55 0 82 26q29 29 35 74t6 197v514h282v-1010h-266v137q-61 -104 -119 -131q-55 -27 -141 -26q-109 0 -166 45t-76 112q-16 59 -16 215z" />
<glyph unicode="v" horiz-adv-x="731" d="M-23 1010h273l137 -596l141 596h236l-279 -1010h-223z" />
<glyph unicode="w" horiz-adv-x="1185" d="M-16 1010h272l121 -615l112 615h275l90 -615l137 615h221l-254 -1010h-235l-129 686l-127 -686h-229z" />
<glyph unicode="x" horiz-adv-x="768" d="M-49 0l299 516l-260 494h305l106 -234l131 234h244l-260 -447l301 -563h-305l-147 301l-170 -301h-244z" />
<glyph unicode="y" horiz-adv-x="731" d="M-29 1010h283l135 -617l131 617h244l-303 -1026q-39 -137 -76 -205q-31 -58 -92 -98q-59 -39 -160 -39q-53 0 -119 16v221q43 -6 78 -6q80 0 113 29q31 27 57 116z" />
<glyph unicode="z" horiz-adv-x="731" d="M41 0v201l367 610h-332v199h631v-181l-375 -628h385v-201h-676z" />
<glyph unicode="{" horiz-adv-x="696" d="M88 442v166q68 2 84 31t16 182v232q0 199 57.5 256t207.5 57q51 0 94 -2v-135q-78 -4 -94 -29q-18 -28 -19 -147v-224q0 -182 -18 -225q-20 -47 -103 -80q86 -35 103 -78q18 -46 18 -227v-250q0 -117 19 -143q20 -29 94 -33v-133q-47 -2 -94 -2q-86 0 -140 14 q-45 12 -86 72q-39 57 -39 225v353q0 68 -20 94q-19 22 -80 26z" />
<glyph unicode="|" horiz-adv-x="1024" d="M358 -342v1708h308v-1708h-308z" />
<glyph unicode="}" horiz-adv-x="696" d="M152 -207q74 3 92 31q18 29 18 145v250q0 184 18.5 227t102.5 78q-86 35 -102 78q-18 46 -19 227v224q0 119 -18 145q-18 28 -92 31v135q47 2 92 2q117 0 164 -24.5t73 -81.5q29 -61 29 -207v-232v-92q0 -70 18 -94q18 -23 80 -27v-166q-47 0 -71 -20q-20 -18 -25 -47 q-2 -18 -2 -146v-260q0 -129 -27 -198q-25 -63 -76 -88t-161 -25q-51 0 -94 2v133z" />
<glyph unicode="~" horiz-adv-x="1363" d="M190 1255q111 279 306 279q70 0 229 -70q123 -53 158 -53q82 0 147 127l150 -123q-104 -274 -322 -274q-57 0 -225 71q-102 45 -152 45q-76 0 -141 -127z" />
<glyph unicode="&#xa1;" horiz-adv-x="696" d="M170 -356l86 958h184l88 -958h-358zM209 707v303h278v-303h-278z" />
<glyph unicode="&#xa2;" d="M137 682q0 219 86 358q84 135 244 148v184h145v-184q268 -37 299 -365l-235 -14q-12 182 -129 182q-68 0 -98 -63q-29 -59 -29 -230q0 -174 29 -229q31 -57 96 -57q49 0 81.5 30.5t49.5 149.5l235 -23q-45 -330 -299 -366v-217h-145v217q-174 29 -252 164t-78 315z" />
<glyph unicode="&#xa3;" d="M16 0v231h107q72 0 104 21q37 23 60 84q25 65 24 184q0 49 -6 107h-155v209h120q-12 102 -12 161q0 172 98 283q94 106 277 106q276 0 344 -258l-217 -104q-31 143 -127 143q-90 0 -90 -141q0 -43 8 -123q4 -35 4 -67h229v-209h-200q0 -12 1 -30.5t1 -23.5 q0 -143 -43 -213q-43 -72 -111 -129h152q154 0 211 57.5t84 147.5l221 -82q-25 -115 -66 -180q-43 -70 -102 -108q-53 -35 -129 -52q-66 -14 -219 -14h-568z" />
<glyph unicode="&#xa4;" d="M76 1001l149 150l133 -133q78 41 164 41q90 0 170 -43l133 133l144 -143l-133 -134q43 -80 43 -170q0 -82 -41 -163l133 -133l-150 -150l-133 131q-86 -41 -166 -41q-88 0 -168 43l-133 -131l-143 143l133 134q-43 80 -43 168t41 165zM365 702q0 -68 45 -112.5t112 -44.5 q66 0 113 47t47 110q0 66 -47 113t-113 47q-63 0 -110 -47t-47 -113z" />
<glyph unicode="&#xa5;" d="M49 1366h291l205 -555l219 555h233l-225 -532h207v-150h-270l-52 -123h322v-149h-322v-412h-270v412h-307v149h307l-51 123h-256v150h192z" />
<glyph unicode="&#xa6;" horiz-adv-x="1024" d="M358 313h308v-655h-308v655zM358 645v721h308v-721h-308z" />
<glyph unicode="&#xa7;" d="M109 -33l233 41q31 -158 188 -158q154 0 154 138q0 66 -49 106q-49 39 -221 115q-102 47 -148 78q-47 33 -86 102q-37 66 -37 150q0 182 158 274q-111 96 -111 238q0 152 97 243q94 92 272 92q299 0 379 -256l-209 -63q-33 133 -158 133q-63 0 -96 -32.5t-33 -80.5 q0 -55 33 -81.5t164 -87.5q154 -72 219 -146q66 -76 66 -201q0 -162 -136 -270q147 -100 148 -281q0 -166 -111 -266q-109 -98 -299 -98q-349 0 -417 311zM379 608q0 -53 32.5 -92t159.5 -94q20 -8 45 -20.5l29 -14.5q55 49 55 123q0 51 -34 86q-25 25 -146 88 q-16 8 -36.5 19.5t-32 16.5t-17.5 9q-55 -49 -55 -121z" />
<glyph unicode="&#xa8;" horiz-adv-x="940" d="M188 1270q0 45 33 76q34 31 80 30q47 0 82 -30q33 -31 33 -76q0 -49 -35 -78q-37 -31 -80 -31q-35 0 -76 31q-37 29 -37 78zM526 1270q0 45 33 76q34 31 80 30q49 0 82 -30.5t33 -75.5q0 -49 -35 -78q-37 -31 -80 -31q-41 0 -78 31q-35 29 -35 78z" />
<glyph unicode="&#xa9;" horiz-adv-x="1593" d="M82 682q0 291 211 500t504 209t506 -209q211 -209 210.5 -500t-210.5 -500q-209 -207 -506 -207t-504 207q-211 211 -211 500zM256 682q0 -227 160 -387q162 -162 381 -162q223 0 383 162q158 160 157 387q0 231 -157 389q-160 160 -383 160q-219 0 -381 -162 q-160 -160 -160 -387zM467 676q0 209 88 317q88 111 262 111q293 0 318 -330l-205 -12q-6 178 -113 178q-119 0 -119 -268q0 -139 29 -192.5t90 -53.5q96 0 115 160l207 -13q-8 -139 -95 -225q-88 -88 -229 -88q-162 0 -256 107q-92 104 -92 309z" />
<glyph unicode="&#xaa;" horiz-adv-x="661" d="M45 711q0 209 340 227v25q0 74 -53 73q-52 0 -62 -67l-200 18q41 184 274 184q86 0 148 -28q55 -27 77 -72q20 -41 21 -147v-232q0 -115 18 -145h-180q-6 27 -10 86q-70 -98 -189 -98q-78 0 -131 43t-53 133zM258 731q0 -61 49 -61q78 0 78 151q-72 0 -100 -22 q-27 -21 -27 -68z" />
<glyph unicode="&#xab;" horiz-adv-x="905" d="M98 524l211 359h150l-125 -359l125 -356h-150zM449 524l208 359h150l-125 -359l125 -356h-150z" />
<glyph unicode="&#xac;" horiz-adv-x="1024" d="M68 328v268h886v-596h-297v328h-589z" />
<glyph unicode="&#xad;" horiz-adv-x="557" d="M76 408v221h407v-221h-407z" />
<glyph unicode="&#xae;" horiz-adv-x="1593" d="M82 682q0 291 211 500t504 209t506 -209q211 -209 210.5 -500t-210.5 -500q-209 -207 -506 -207t-504 207q-211 211 -211 500zM256 682q0 -227 160 -387q162 -162 381 -162q223 0 383 162q158 160 157 387q0 231 -157 389q-160 160 -383 160q-219 0 -381 -162 q-160 -160 -160 -387zM506 272v820h270q111 0 166 -17q63 -18 109 -80q47 -63 47 -151q0 -154 -123 -215l151 -357h-241l-105 316h-53v-316h-221zM727 739h51q100 0 101 105q0 96 -109 96h-43v-201z" />
<glyph unicode="&#xaf;" horiz-adv-x="1024" d="M0 1483v180h1024v-180h-1024z" />
<glyph unicode="&#xb0;" d="M199 1061q0 135 94 229q96 96 231 96q133 0 229.5 -96t96.5 -229t-96.5 -229.5t-229.5 -96.5t-229 96.5t-96 229.5zM385 1061q0 -74 41 -117q43 -47 98 -47q58 0 99 49q41 51 41 114.5t-41 115.5q-39 47 -99 47q-55 0 -98 -47q-41 -43 -41 -115z" />
<glyph unicode="&#xb1;" d="M104 -23v216h838v-216h-838zM104 573v218h308v311h225v-311h305v-218h-305v-286h-225v286h-308z" />
<glyph unicode="&#xb2;" horiz-adv-x="696" d="M31 1090q43 287 309 286q143 0 215 -71q74 -74 74 -172q0 -86 -64 -177q-66 -94 -289 -223h365l-16 -186h-590v178q250 193 301 262q57 76 57 135q0 82 -63 82q-78 0 -90 -151z" />
<glyph unicode="&#xb3;" horiz-adv-x="696" d="M16 797l203 30q10 -121 96 -120q88 0 88 92q0 96 -116 96h-72v149h72q106 0 106 86q0 80 -71 80q-70 0 -89 -98l-198 33q63 231 307 231q132 0 203 -61q72 -61 71 -158q0 -121 -133 -180q152 -53 152 -197q0 -113 -84 -180q-80 -66 -219 -65q-283 0 -316 262z" />
<glyph unicode="&#xb4;" horiz-adv-x="940" d="M373 1202l340 316l112 -168l-368 -232z" />
<glyph unicode="&#xb5;" horiz-adv-x="976" d="M90 -342v1352h281v-514q0 -125 4 -195q2 -51 33 -78q28 -25 73.5 -24.5t73.5 24.5q31 27 33 76q4 70 4 197v514h282v-1010h-266v137q-18 -98 -49 -129q-29 -29 -78 -28q-47 0 -75 28q-33 33 -52 129v-479h-264z" />
<glyph unicode="&#xb6;" horiz-adv-x="1116" d="M43 952q0 141 51 240q49 94 127 135q76 39 260 39h477v-1708h-159v1544h-99v-1544h-159v870h-72q-154 0 -236 35q-88 37 -139 135q-51 96 -51 254z" />
<glyph unicode="&#xb7;" horiz-adv-x="522" d="M123 375v303h278v-303h-278z" />
<glyph unicode="&#xb8;" horiz-adv-x="940" d="M279 -356l32 82q98 -49 162 -50q74 0 74 62q0 37 -35 61q-33 25 -84 25q-27 0 -66 -6l64 182h117l-39 -102q33 4 39 4q71 0 116 -43t46 -117q0 -77 -56 -123q-57 -47 -149 -47q-106 0 -221 72z" />
<glyph unicode="&#xb9;" horiz-adv-x="696" d="M127 547v160h147v411q-66 -53 -147 -88v191q127 57 203 151h170v-665h143v-160h-516z" />
<glyph unicode="&#xba;" horiz-adv-x="626" d="M35 854q0 317 278 317q281 0 281 -313q0 -324 -281 -323q-278 0 -278 319zM254 854q0 -80 8 -123q10 -51 53 -51q39 0 50 51q10 55 10 123q0 109 -17 141q-14 31 -45 31q-39 0 -49 -45q-10 -47 -10 -127z" />
<glyph unicode="&#xbb;" horiz-adv-x="905" d="M98 168l125 356l-125 359h150l211 -359l-211 -356h-150zM449 168l124 356l-124 359h147l211 -359l-211 -356h-147z" />
<glyph unicode="&#xbc;" horiz-adv-x="1638" d="M104 547v160h147v411q-66 -53 -147 -88v191q127 57 203 151h170v-665h143v-160h-516zM1063 1366h164l-652 -1366h-159zM1241 829h233v-479h101v-166h-101v-184h-223v184h-313v156zM1271 330v313l-182 -313h182z" />
<glyph unicode="&#xbd;" horiz-adv-x="1638" d="M109 547v160h147v411q-66 -53 -147 -88v191q127 57 203 151h170v-665h143v-160h-516zM1063 1366h164l-652 -1366h-159zM932 543q43 287 309 286q143 0 215 -71q74 -74 74 -172q0 -86 -64 -177q-66 -94 -289 -223h365l-16 -186h-590v178q250 193 301 262q57 76 57 135 q0 82 -63 82q-78 0 -90 -151z" />
<glyph unicode="&#xbe;" horiz-adv-x="1638" d="M61 797l203 30q10 -121 96 -120q88 0 88 92q0 96 -116 96h-72v149h72q106 0 106 86q0 80 -71 80q-70 0 -89 -98l-198 33q63 231 307 231q132 0 203 -61q72 -61 71 -158q0 -121 -133 -180q152 -53 152 -197q0 -113 -84 -180q-80 -66 -219 -65q-283 0 -316 262zM1110 1366 h164l-652 -1366h-159zM1254 829h233v-479h101v-166h-101v-184h-223v184h-313v156zM1284 330v313l-182 -313h182z" />
<glyph unicode="&#xbf;" horiz-adv-x="976" d="M96 6q0 117 47 199q47 80 156 180q78 70 92 102q16 39 17 131h239v-45q0 -131 -14 -182q-14 -55 -103 -139q-78 -78 -102 -125q-29 -53 -29 -127q0 -63 35 -98q33 -33 82 -33q145 0 146 246l256 -37q-6 -211 -113 -332q-109 -123 -305 -123q-213 0 -307 115 q-97 118 -97 268zM395 719v291h267v-291h-267z" />
<glyph unicode="&#xc0;" d="M-41 0l412 1366h301l391 -1366h-307l-70 283h-383l-67 -283h-277zM360 516h271l-137 557zM236 1682l110 168l342 -316l-84 -84z" />
<glyph unicode="&#xc1;" d="M-41 0l412 1366h301l391 -1366h-307l-70 283h-383l-67 -283h-277zM360 516h271l-137 557zM379 1534l340 316l112 -168l-368 -232z" />
<glyph unicode="&#xc2;" d="M-41 0l412 1366h301l391 -1366h-307l-70 283h-383l-67 -283h-277zM360 516h271l-137 557zM119 1489l401 313l401 -313h-219l-182 116l-182 -116h-219z" />
<glyph unicode="&#xc3;" d="M-41 0l412 1366h301l391 -1366h-307l-70 283h-383l-67 -283h-277zM360 516h271l-137 557zM192 1562q111 143 219 143q47 0 134 -34q86 -39 120 -39q43 0 97 71l90 -65q-100 -154 -230 -154q-47 0 -127 35q-86 39 -120 39q-43 0 -97 -61z" />
<glyph unicode="&#xc4;" d="M-41 0l412 1366h301l391 -1366h-307l-70 283h-383l-67 -283h-277zM360 516h271l-137 557zM233 1602q0 45 33 76q34 31 80 30q47 0 82 -30q33 -31 33 -76q0 -49 -35 -78q-37 -31 -80 -31q-35 0 -76 31q-37 29 -37 78zM571 1602q0 45 33 76q34 31 80 30q49 0 82 -30.5 t33 -75.5q0 -49 -35 -78q-37 -31 -80 -31q-41 0 -78 31q-35 29 -35 78z" />
<glyph unicode="&#xc5;" d="M-41 0l412 1366h301l391 -1366h-307l-70 283h-383l-67 -283h-277zM360 516h271l-137 557zM330 1642q0 84 57 140q58 55 135 55t135 -55q57 -55 58 -140q0 -88 -59.5 -139t-133.5 -51q-70 0 -133 53q-59 51 -59 137zM444 1645q0 -37 25 -60q27 -23 53.5 -22.5t52.5 22.5 q25 23 25 60q0 33 -24.5 57t-53.5 24t-53.5 -24t-24.5 -57z" />
<glyph unicode="&#xc6;" horiz-adv-x="1394" d="M-82 0l537 1366h923v-236h-506v-317h400v-233h-400v-336h506v-244h-792v315h-299l-111 -315h-258zM362 537h230v628z" />
<glyph unicode="&#xc7;" horiz-adv-x="1116" d="M80 682q0 330 131 516q133 188 389 188q428 0 465 -528l-274 -20q-12 305 -191 305q-94 0 -149.5 -98.5t-55.5 -380.5q0 -252 51.5 -346.5t153.5 -94.5q164 0 193 275l276 -19q-12 -197 -121 -338q-111 -143 -319 -161l-29 -84q16 2 41 2q76 0 121 -45q47 -47 47 -119 q0 -78 -55.5 -127t-155.5 -49q-111 0 -227 73l32 93q100 -53 166 -53.5t66 59.5q0 35 -31 59.5t-88 24.5l-61 -2l59 172q-434 80 -434 698z" />
<glyph unicode="&#xc8;" horiz-adv-x="976" d="M129 0v1366h829v-236h-530v-317h414v-233h-414v-336h530v-244h-829zM267 1682l110 168l342 -316l-84 -84z" />
<glyph unicode="&#xc9;" horiz-adv-x="976" d="M129 0v1366h829v-236h-530v-317h414v-233h-414v-336h530v-244h-829zM383 1552l340 316l112 -168l-368 -232z" />
<glyph unicode="&#xca;" horiz-adv-x="976" d="M129 0v1366h829v-236h-530v-317h414v-233h-414v-336h530v-244h-829zM148 1489l401 313l401 -313h-219l-182 116l-182 -116h-219z" />
<glyph unicode="&#xcb;" horiz-adv-x="976" d="M129 0v1366h829v-236h-530v-317h414v-233h-414v-336h530v-244h-829zM260 1602q0 45 33 76q34 31 80 30q47 0 82 -30q33 -31 33 -76q0 -49 -35 -78q-37 -31 -80 -31q-35 0 -76 31q-37 29 -37 78zM598 1602q0 45 33 76q34 31 80 30q49 0 82 -30.5t33 -75.5q0 -49 -35 -78 q-37 -31 -80 -31q-41 0 -78 31q-35 29 -35 78z" />
<glyph unicode="&#xcc;" horiz-adv-x="557" d="M129 0v1366h299v-1366h-299zM6 1682l110 168l342 -316l-84 -84z" />
<glyph unicode="&#xcd;" horiz-adv-x="557" d="M129 0v1366h299v-1366h-299zM97 1534l340 316l112 -168l-368 -232z" />
<glyph unicode="&#xce;" horiz-adv-x="557" d="M129 0v1366h299v-1366h-299zM-123 1465l401 313l401 -313h-219l-182 116l-182 -116h-219z" />
<glyph unicode="&#xcf;" horiz-adv-x="557" d="M129 0v1366h299v-1366h-299zM-5 1602q0 45 33 76q34 31 80 30q47 0 82 -30q33 -31 33 -76q0 -49 -35 -78q-37 -31 -80 -31q-35 0 -76 31q-37 29 -37 78zM333 1602q0 45 33 76q34 31 80 30q49 0 82 -30.5t33 -75.5q0 -49 -35 -78q-37 -31 -80 -31q-41 0 -78 31 q-35 29 -35 78z" />
<glyph unicode="&#xd0;" horiz-adv-x="1150" d="M12 590v203h117v573h324q213 0 342 -57.5t208.5 -211t79.5 -409.5q0 -180 -49 -326q-49 -143 -125 -225q-74 -80 -176 -108.5t-246 -28.5h-358v590h-117zM428 236h51q104 0 162 38q59 41 92 140q35 104 35 288q0 168 -39 269q-37 94 -94 126.5t-156 32.5h-51v-337h201 v-203h-201v-354z" />
<glyph unicode="&#xd1;" horiz-adv-x="1150" d="M119 0v1366h332l352 -850v850h231v-1366h-268l-416 987v-987h-231zM262 1562q111 143 219 143q47 0 134 -34q86 -39 120 -39q43 0 97 71l90 -65q-100 -154 -230 -154q-47 0 -127 35q-86 39 -120 39q-43 0 -97 -61z" />
<glyph unicode="&#xd2;" horiz-adv-x="1150" d="M80 682q0 705 495 704q242 0 369 -176t127 -528q0 -702 -496 -702q-244 0 -370 178q-125 176 -125 524zM395 682q0 -268 43 -365q43 -94 137 -94q92 0 136 90q45 96 45 369q0 276 -43 368.5t-137.5 92.5t-137.5 -92.5t-43 -368.5zM295 1700l110 168l342 -316l-84 -84z " />
<glyph unicode="&#xd3;" horiz-adv-x="1150" d="M80 682q0 705 495 704q242 0 369 -176t127 -528q0 -702 -496 -702q-244 0 -370 178q-125 176 -125 524zM395 682q0 -268 43 -365q43 -94 137 -94q92 0 136 90q45 96 45 369q0 276 -43 368.5t-137.5 92.5t-137.5 -92.5t-43 -368.5zM406 1552l340 316l112 -168l-368 -232z " />
<glyph unicode="&#xd4;" horiz-adv-x="1150" d="M80 682q0 705 495 704q242 0 369 -176t127 -528q0 -702 -496 -702q-244 0 -370 178q-125 176 -125 524zM395 682q0 -268 43 -365q43 -94 137 -94q92 0 136 90q45 96 45 369q0 276 -43 368.5t-137.5 92.5t-137.5 -92.5t-43 -368.5zM183 1465l401 313l401 -313h-219 l-182 116l-182 -116h-219z" />
<glyph unicode="&#xd5;" horiz-adv-x="1150" d="M80 682q0 705 495 704q242 0 369 -176t127 -528q0 -702 -496 -702q-244 0 -370 178q-125 176 -125 524zM395 682q0 -268 43 -365q43 -94 137 -94q92 0 136 90q45 96 45 369q0 276 -43 368.5t-137.5 92.5t-137.5 -92.5t-43 -368.5zM245 1562q111 143 219 143q47 0 134 -34 q86 -39 120 -39q43 0 97 71l90 -65q-100 -154 -230 -154q-47 0 -127 35q-86 39 -120 39q-43 0 -97 -61z" />
<glyph unicode="&#xd6;" horiz-adv-x="1150" d="M80 682q0 705 495 704q242 0 369 -176t127 -528q0 -702 -496 -702q-244 0 -370 178q-125 176 -125 524zM395 682q0 -268 43 -365q43 -94 137 -94q92 0 136 90q45 96 45 369q0 276 -43 368.5t-137.5 92.5t-137.5 -92.5t-43 -368.5zM301 1602q0 45 33 76q34 31 80 30 q47 0 82 -30q33 -31 33 -76q0 -49 -35 -78q-37 -31 -80 -31q-35 0 -76 31q-37 29 -37 78zM639 1602q0 45 33 76q34 31 80 30q49 0 82 -30.5t33 -75.5q0 -49 -35 -78q-37 -31 -80 -31q-41 0 -78 31q-35 29 -35 78z" />
<glyph unicode="&#xd7;" d="M131 451l231 231l-231 233l160 160l231 -233l234 233l159 -160l-233 -233l233 -231l-159 -160l-234 231l-231 -231z" />
<glyph unicode="&#xd8;" horiz-adv-x="1150" d="M80 682q0 705 495 704q141 0 246 -61l62 119h157l-110 -217q141 -172 141 -545q0 -702 -496 -702q-125 0 -237 55l-64 -119h-155l106 215q-145 182 -145 551zM369 682q0 -162 14 -248l315 674q-49 51 -123 51q-98 0 -153 -90q-53 -86 -53 -387zM457 244q47 -39 127 -39 q108 0 153 110q45 109 45 412q0 100 -14 193z" />
<glyph unicode="&#xd9;" horiz-adv-x="1185" d="M129 586v780h299v-780q0 -162 16 -232q15 -65 62 -98q45 -33 117 -33q76 0 118 37q47 39 56 98q10 68 10 228v780h250v-768q0 -236 -27 -344q-29 -115 -135 -195q-109 -80 -297 -79q-178 0 -280.5 59t-145.5 166q-43 108 -43 381zM326 1682l110 168l342 -316l-84 -84z " />
<glyph unicode="&#xda;" horiz-adv-x="1185" d="M129 586v780h299v-780q0 -162 16 -232q15 -65 62 -98q45 -33 117 -33q76 0 118 37q47 39 56 98q10 68 10 228v780h250v-768q0 -236 -27 -344q-29 -115 -135 -195q-109 -80 -297 -79q-178 0 -280.5 59t-145.5 166q-43 108 -43 381zM439 1534l340 316l112 -168l-368 -232z " />
<glyph unicode="&#xdb;" horiz-adv-x="1185" d="M129 586v780h299v-780q0 -162 16 -232q15 -65 62 -98q45 -33 117 -33q76 0 118 37q47 39 56 98q10 68 10 228v780h250v-768q0 -236 -27 -344q-29 -115 -135 -195q-109 -80 -297 -79q-178 0 -280.5 59t-145.5 166q-43 108 -43 381zM115 1481l401 313l401 -313h-219 l-182 116l-182 -116h-219z" />
<glyph unicode="&#xdc;" horiz-adv-x="1185" d="M129 586v780h299v-780q0 -162 16 -232q15 -65 62 -98q45 -33 117 -33q76 0 118 37q47 39 56 98q10 68 10 228v780h250v-768q0 -236 -27 -344q-29 -115 -135 -195q-109 -80 -297 -79q-178 0 -280.5 59t-145.5 166q-43 108 -43 381zM317 1602q0 45 33 76q34 31 80 30 q47 0 82 -30q33 -31 33 -76q0 -49 -35 -78q-37 -31 -80 -31q-35 0 -76 31q-37 29 -37 78zM655 1602q0 45 33 76q34 31 80 30q49 0 82 -30.5t33 -75.5q0 -49 -35 -78q-37 -31 -80 -31q-41 0 -78 31q-35 29 -35 78z" />
<glyph unicode="&#xdd;" horiz-adv-x="905" d="M-57 1366h329l193 -500l207 500h293l-379 -788v-578h-301v578zM305 1534l340 316l112 -168l-368 -232z" />
<glyph unicode="&#xde;" d="M129 0v1366h299v-186h94q180 0 279 -31q94 -29 164 -137q68 -104 67 -260q0 -154 -53 -248q-55 -98 -150 -142q-96 -43 -294 -43h-107v-319h-299zM428 555h94q121 0 158 55.5t37 149.5q0 76 -29 123q-31 51 -63 61q-43 14 -103 14h-94v-403z" />
<glyph unicode="&#xdf;" horiz-adv-x="1114" d="M20 694v221h111q0 254 125 392q129 141 356 141q174 0 267 -88q88 -86 88 -209q0 -229 -305 -326q14 -29 124 -75q182 -78 246 -172q61 -92 62 -213q0 -176 -107 -281q-108 -104 -276 -104q-115 0 -224 40l68 193q88 -39 152 -39q135 0 135 135q0 63 -35 103 q-37 41 -131 96q-111 66 -154 121q-47 59 -47 139q0 72 37 168q193 29 193 172q0 65 -37 104t-101 39q-59 0 -96 -37q-39 -39 -47 -92q-10 -61 -10 -196v-1045h-283v813h-111z" />
<glyph unicode="&#xe0;" horiz-adv-x="976" d="M74 256q0 168 110.5 260t409.5 111v39q0 100 -20.5 139t-79.5 39q-106 0 -119 -156l-269 27q18 151 130 233q109 82 278 82q147 0 229 -53q86 -55 109 -127q23 -74 22 -223v-404q0 -190 17 -223h-260q-14 37 -15 156q-92 -176 -276 -176q-121 0 -193 69q-73 70 -73 207z M365 293q0 -129 94 -129q49 0 92 57.5t43 210.5v51q-125 -16 -176 -55q-53 -41 -53 -135zM217 1350l110 168l342 -316l-84 -84z" />
<glyph unicode="&#xe1;" horiz-adv-x="976" d="M74 256q0 168 110.5 260t409.5 111v39q0 100 -20.5 139t-79.5 39q-106 0 -119 -156l-269 27q18 151 130 233q109 82 278 82q147 0 229 -53q86 -55 109 -127q23 -74 22 -223v-404q0 -190 17 -223h-260q-14 37 -15 156q-92 -176 -276 -176q-121 0 -193 69q-73 70 -73 207z M365 293q0 -129 94 -129q49 0 92 57.5t43 210.5v51q-125 -16 -176 -55q-53 -41 -53 -135zM365 1202l340 316l112 -168l-368 -232z" />
<glyph unicode="&#xe2;" horiz-adv-x="976" d="M74 256q0 168 110.5 260t409.5 111v39q0 100 -20.5 139t-79.5 39q-106 0 -119 -156l-269 27q18 151 130 233q109 82 278 82q147 0 229 -53q86 -55 109 -127q23 -74 22 -223v-404q0 -190 17 -223h-260q-14 37 -15 156q-92 -176 -276 -176q-121 0 -193 69q-73 70 -73 207z M365 293q0 -129 94 -129q49 0 92 57.5t43 210.5v51q-125 -16 -176 -55q-53 -41 -53 -135zM56 1133l401 313l401 -313h-219l-182 116l-182 -116h-219z" />
<glyph unicode="&#xe3;" horiz-adv-x="976" d="M74 256q0 168 110.5 260t409.5 111v39q0 100 -20.5 139t-79.5 39q-106 0 -119 -156l-269 27q18 151 130 233q109 82 278 82q147 0 229 -53q86 -55 109 -127q23 -74 22 -223v-404q0 -190 17 -223h-260q-14 37 -15 156q-92 -176 -276 -176q-121 0 -193 69q-73 70 -73 207z M365 293q0 -129 94 -129q49 0 92 57.5t43 210.5v51q-125 -16 -176 -55q-53 -41 -53 -135zM180 1243q111 143 219 143q47 0 134 -34q86 -39 120 -39q43 0 97 71l90 -65q-100 -154 -230 -154q-47 0 -127 35q-86 39 -120 39q-43 0 -97 -61z" />
<glyph unicode="&#xe4;" horiz-adv-x="976" d="M74 256q0 168 110.5 260t409.5 111v39q0 100 -20.5 139t-79.5 39q-106 0 -119 -156l-269 27q18 151 130 233q109 82 278 82q147 0 229 -53q86 -55 109 -127q23 -74 22 -223v-404q0 -190 17 -223h-260q-14 37 -15 156q-92 -176 -276 -176q-121 0 -193 69q-73 70 -73 207z M365 293q0 -129 94 -129q49 0 92 57.5t43 210.5v51q-125 -16 -176 -55q-53 -41 -53 -135zM227 1270q0 45 33 76q34 31 80 30q47 0 82 -30q33 -31 33 -76q0 -49 -35 -78q-37 -31 -80 -31q-35 0 -76 31q-37 29 -37 78zM565 1270q0 45 33 76q34 31 80 30q49 0 82 -30.5 t33 -75.5q0 -49 -35 -78q-37 -31 -80 -31q-41 0 -78 31q-35 29 -35 78z" />
<glyph unicode="&#xe5;" horiz-adv-x="976" d="M74 256q0 168 110.5 260t409.5 111v39q0 100 -20.5 139t-79.5 39q-106 0 -119 -156l-269 27q18 151 130 233q109 82 278 82q147 0 229 -53q86 -55 109 -127q23 -74 22 -223v-404q0 -190 17 -223h-260q-14 37 -15 156q-92 -176 -276 -176q-121 0 -193 69q-73 70 -73 207z M365 293q0 -129 94 -129q49 0 92 57.5t43 210.5v51q-125 -16 -176 -55q-53 -41 -53 -135zM322 1300q0 84 57 140q58 55 135 55t135 -55q57 -55 58 -140q0 -88 -59.5 -139t-133.5 -51q-70 0 -133 53q-59 51 -59 137zM436 1303q0 -37 25 -60q27 -23 53.5 -22.5t52.5 22.5 q25 23 25 60q0 33 -24.5 57t-53.5 24t-53.5 -24t-24.5 -57z" />
<glyph unicode="&#xe6;" horiz-adv-x="1429" d="M74 262q0 90 39 168q41 82 133 129t327 70q2 31 2 65q0 96 -32.5 123t-73.5 27q-115 0 -127 -162l-244 27q51 322 385 321q178 0 242 -102q96 102 250 102q141 0 231 -71.5t127 -184.5q37 -115 37 -315h-522q0 -12 -1 -27.5t-1 -19.5q0 -238 135 -238q119 0 137 168 l244 -16q-61 -346 -381 -346q-211 0 -291 172q-109 -172 -323 -172q-139 0 -217 77q-76 76 -76 205zM354 297q0 -131 95 -131q125 0 124 237v80q-139 -18 -180 -65q-39 -45 -39 -121zM846 621h260q-2 223 -129 223q-123 0 -131 -223z" />
<glyph unicode="&#xe7;" horiz-adv-x="905" d="M59 502q0 256 109 393q106 135 305 135q354 0 385 -391l-262 -10q-6 94 -31 139q-25 47 -80 47q-143 0 -143 -297q0 -172 35 -241.5t102 -69.5q109 0 117 186l262 -16q-35 -365 -352 -397l-33 -82q33 4 41 4q68 0 117 -45q47 -43 47 -115q0 -77 -55 -123 q-57 -47 -154 -47q-104 0 -219 72l35 88q96 -55 161 -56q70 0 70 62q0 37 -32.5 61.5t-84.5 24.5q-27 0 -65 -6l59 166q-334 55 -334 518z" />
<glyph unicode="&#xe8;" horiz-adv-x="940" d="M59 489q0 262 115 401.5t303 139.5q172 0 289 -123q115 -121 115 -448h-531v-58q0 -135 37 -182q37 -45 98 -45q129 0 146 172l250 -14q-68 -352 -402 -352q-203 0 -311.5 139t-108.5 370zM352 621h262q0 6 1 16t1 12q0 195 -133 195q-131 0 -131 -223zM199 1350l110 168 l342 -316l-84 -84z" />
<glyph unicode="&#xe9;" horiz-adv-x="940" d="M59 489q0 262 115 401.5t303 139.5q172 0 289 -123q115 -121 115 -448h-531v-58q0 -135 37 -182q37 -45 98 -45q129 0 146 172l250 -14q-68 -352 -402 -352q-203 0 -311.5 139t-108.5 370zM352 621h262q0 6 1 16t1 12q0 195 -133 195q-131 0 -131 -223zM338 1202l340 316 l112 -168l-368 -232z" />
<glyph unicode="&#xea;" horiz-adv-x="940" d="M59 489q0 262 115 401.5t303 139.5q172 0 289 -123q115 -121 115 -448h-531v-58q0 -135 37 -182q37 -45 98 -45q129 0 146 172l250 -14q-68 -352 -402 -352q-203 0 -311.5 139t-108.5 370zM352 621h262q0 6 1 16t1 12q0 195 -133 195q-131 0 -131 -223zM90 1133l401 313 l401 -313h-219l-182 116l-182 -116h-219z" />
<glyph unicode="&#xeb;" horiz-adv-x="940" d="M59 489q0 262 115 401.5t303 139.5q172 0 289 -123q115 -121 115 -448h-531v-58q0 -135 37 -182q37 -45 98 -45q129 0 146 172l250 -14q-68 -352 -402 -352q-203 0 -311.5 139t-108.5 370zM352 621h262q0 6 1 16t1 12q0 195 -133 195q-131 0 -131 -223zM208 1270 q0 45 33 76q34 31 80 30q47 0 82 -30q33 -31 33 -76q0 -49 -35 -78q-37 -31 -80 -31q-35 0 -76 31q-37 29 -37 78zM546 1270q0 45 33 76q34 31 80 30q49 0 82 -30.5t33 -75.5q0 -49 -35 -78q-37 -31 -80 -31q-41 0 -78 31q-35 29 -35 78z" />
<glyph unicode="&#xec;" horiz-adv-x="487" d="M102 1010h283v-1010h-283v1010zM-49 1350l110 168l342 -316l-84 -84z" />
<glyph unicode="&#xed;" horiz-adv-x="487" d="M102 1010h283v-1010h-283v1010zM86 1202l340 316l112 -168l-368 -232z" />
<glyph unicode="&#xee;" horiz-adv-x="487" d="M102 1010h283v-1010h-283v1010zM-157 1133l401 313l401 -313h-219l-182 116l-182 -116h-219z" />
<glyph unicode="&#xef;" horiz-adv-x="487" d="M102 1010h283v-1010h-283v1010zM-39 1270q0 45 33 76q34 31 80 30q47 0 82 -30q33 -31 33 -76q0 -49 -35 -78q-37 -31 -80 -31q-35 0 -76 31q-37 29 -37 78zM299 1270q0 45 33 76q34 31 80 30q49 0 82 -30.5t33 -75.5q0 -49 -35 -78q-37 -31 -80 -31q-41 0 -78 31 q-35 29 -35 78z" />
<glyph unicode="&#xf0;" horiz-adv-x="940" d="M61 506q0 260 100.5 391t244.5 131q76 0 133 -45q-33 98 -80 180l-140 -82l-61 103l141 84l-69 112l157 97l76 -111l131 80l62 -103l-127 -75q254 -403 254 -781q0 -230 -99 -368q-98 -139 -307 -139q-416 0 -416 526zM352 506q0 -186 24.5 -258t94.5 -72t94 72 q27 76 27 258q0 195 -27 260q-29 68 -94 68q-63 0 -90 -64q-29 -67 -29 -264z" />
<glyph unicode="&#xf1;" horiz-adv-x="976" d="M104 0v1010h267v-138q72 158 254 158q96 0 163 -45q63 -41 82 -113q18 -68 19 -210v-662h-283v662q0 100 -26 126q-23 23 -70 23q-76 0 -100.5 -45t-24.5 -174v-592h-281zM151 1243q111 143 219 143q47 0 134 -34q86 -39 120 -39q43 0 97 71l90 -65q-100 -154 -230 -154 q-47 0 -127 35q-86 39 -120 39q-43 0 -97 -61z" />
<glyph unicode="&#xf2;" horiz-adv-x="940" d="M61 506q0 524 410 524q412 0 412 -524q0 -526 -412 -526q-410 0 -410 526zM352 506q0 -186 24.5 -258t94.5 -72t94 72q27 76 27 258q0 195 -27 260q-29 68 -94 68q-63 0 -90 -64q-29 -67 -29 -264zM187 1350l110 168l342 -316l-84 -84z" />
<glyph unicode="&#xf3;" horiz-adv-x="940" d="M61 506q0 524 410 524q412 0 412 -524q0 -526 -412 -526q-410 0 -410 526zM352 506q0 -186 24.5 -258t94.5 -72t94 72q27 76 27 258q0 195 -27 260q-29 68 -94 68q-63 0 -90 -64q-29 -67 -29 -264zM326 1202l340 316l112 -168l-368 -232z" />
<glyph unicode="&#xf4;" horiz-adv-x="940" d="M61 506q0 524 410 524q412 0 412 -524q0 -526 -412 -526q-410 0 -410 526zM352 506q0 -186 24.5 -258t94.5 -72t94 72q27 76 27 258q0 195 -27 260q-29 68 -94 68q-63 0 -90 -64q-29 -67 -29 -264zM70 1133l401 313l401 -313h-219l-182 116l-182 -116h-219z" />
<glyph unicode="&#xf5;" horiz-adv-x="940" d="M61 506q0 524 410 524q412 0 412 -524q0 -526 -412 -526q-410 0 -410 526zM352 506q0 -186 24.5 -258t94.5 -72t94 72q27 76 27 258q0 195 -27 260q-29 68 -94 68q-63 0 -90 -64q-29 -67 -29 -264zM141 1243q111 143 219 143q47 0 134 -34q86 -39 120 -39q43 0 97 71 l90 -65q-100 -154 -230 -154q-47 0 -127 35q-86 39 -120 39q-43 0 -97 -61z" />
<glyph unicode="&#xf6;" horiz-adv-x="940" d="M61 506q0 524 410 524q412 0 412 -524q0 -526 -412 -526q-410 0 -410 526zM352 506q0 -186 24.5 -258t94.5 -72t94 72q27 76 27 258q0 195 -27 260q-29 68 -94 68q-63 0 -90 -64q-29 -67 -29 -264zM188 1270q0 45 33 76q34 31 80 30q47 0 82 -30q33 -31 33 -76 q0 -49 -35 -78q-37 -31 -80 -31q-35 0 -76 31q-37 29 -37 78zM526 1270q0 45 33 76q34 31 80 30q49 0 82 -30.5t33 -75.5q0 -49 -35 -78q-37 -31 -80 -31q-41 0 -78 31q-35 29 -35 78z" />
<glyph unicode="&#xf7;" d="M104 573v218h838v-218h-838zM403 211v270h242v-270h-242zM403 885v270h242v-270h-242z" />
<glyph unicode="&#xf8;" horiz-adv-x="940" d="M61 506q0 524 410 524q104 0 191 -35l61 119h133l-96 -192q123 -135 123 -416q0 -526 -412 -526q-98 0 -178 30l-66 -127h-133l99 195q-132 137 -132 428zM311 506q0 -86 11 -203l241 522q-49 23 -88 23q-96 0 -129 -76q-35 -80 -35 -266zM391 176q31 -14 80 -14 q98 0 129 82q31 84 31 262q0 78 -6 176z" />
<glyph unicode="&#xf9;" horiz-adv-x="976" d="M90 352v658h283v-648q0 -100 16 -131q18 -33 80 -32q55 0 82 26q29 29 35 74t6 197v514h282v-1010h-266v137q-61 -104 -119 -131q-55 -27 -141 -26q-109 0 -166 45t-76 112q-16 59 -16 215zM191 1350l110 168l342 -316l-84 -84z" />
<glyph unicode="&#xfa;" horiz-adv-x="976" d="M90 352v658h283v-648q0 -100 16 -131q18 -33 80 -32q55 0 82 26q29 29 35 74t6 197v514h282v-1010h-266v137q-61 -104 -119 -131q-55 -27 -141 -26q-109 0 -166 45t-76 112q-16 59 -16 215zM330 1202l340 316l112 -168l-368 -232z" />
<glyph unicode="&#xfb;" horiz-adv-x="976" d="M90 352v658h283v-648q0 -100 16 -131q18 -33 80 -32q55 0 82 26q29 29 35 74t6 197v514h282v-1010h-266v137q-61 -104 -119 -131q-55 -27 -141 -26q-109 0 -166 45t-76 112q-16 59 -16 215zM80 1133l401 313l401 -313h-219l-182 116l-182 -116h-219z" />
<glyph unicode="&#xfc;" horiz-adv-x="976" d="M90 352v658h283v-648q0 -100 16 -131q18 -33 80 -32q55 0 82 26q29 29 35 74t6 197v514h282v-1010h-266v137q-61 -104 -119 -131q-55 -27 -141 -26q-109 0 -166 45t-76 112q-16 59 -16 215zM198 1270q0 45 33 76q34 31 80 30q47 0 82 -30q33 -31 33 -76q0 -49 -35 -78 q-37 -31 -80 -31q-35 0 -76 31q-37 29 -37 78zM536 1270q0 45 33 76q34 31 80 30q49 0 82 -30.5t33 -75.5q0 -49 -35 -78q-37 -31 -80 -31q-41 0 -78 31q-35 29 -35 78z" />
<glyph unicode="&#xfd;" horiz-adv-x="731" d="M-29 1010h283l135 -617l131 617h244l-303 -1026q-39 -137 -76 -205q-31 -58 -92 -98q-59 -39 -160 -39q-53 0 -119 16v221q43 -6 78 -6q80 0 113 29q31 27 57 116zM238 1202l340 316l112 -168l-368 -232z" />
<glyph unicode="&#xfe;" horiz-adv-x="976" d="M104 -342v1708h277v-483q86 141 219 141q138 0 227 -129q90 -131 91 -373q0 -264 -91 -401q-89 -135 -252 -135q-117 0 -190 90l-4 -418h-277zM381 414q0 -145 25 -189q27 -45 94 -45q66 0 96.5 59.5t30.5 280.5q0 193 -29 256q-28 61 -86 62q-61 0 -96 -59.5t-35 -174.5 v-190z" />
<glyph unicode="&#xff;" horiz-adv-x="731" d="M-29 1010h283l135 -617l131 617h244l-303 -1026q-39 -137 -76 -205q-31 -58 -92 -98q-59 -39 -160 -39q-53 0 -119 16v221q43 -6 78 -6q80 0 113 29q31 27 57 116zM98 1270q0 45 33 76q34 31 80 30q47 0 82 -30q33 -31 33 -76q0 -49 -35 -78q-37 -31 -80 -31 q-35 0 -76 31q-37 29 -37 78zM436 1270q0 45 33 76q34 31 80 30q49 0 82 -30.5t33 -75.5q0 -49 -35 -78q-37 -31 -80 -31q-41 0 -78 31q-35 29 -35 78z" />
<glyph unicode="&#x131;" horiz-adv-x="487" d="M102 1010h283v-1010h-283v1010z" />
<glyph unicode="&#x152;" horiz-adv-x="1603" d="M80 647q0 389 135 563q135 176 391 176q84 0 187 -20h794v-236h-536v-317h419v-233h-419v-336h536v-244h-813q-102 -20 -178 -20q-141 0 -260 63q-121 66 -188.5 237.5t-67.5 366.5zM395 662q0 -438 219 -439q92 0 150 51v813q-55 55 -154 56q-137 0 -176 -144 q-39 -140 -39 -337z" />
<glyph unicode="&#x153;" horiz-adv-x="1464" d="M61 506q0 524 404 524q182 0 278 -117q95 117 258 117q141 0 236 -74q92 -72 131 -192q37 -117 37 -305h-537v-58q0 -137 39 -182t103 -45q125 0 143 172l252 -14q-74 -352 -395 -352q-170 0 -279 108q-92 -109 -268 -108q-200 0 -301 135q-101 133 -101 391zM352 506 q0 -186 24.5 -258t94.5 -72q72 0 96.5 74t24.5 256q0 195 -27 260q-29 68 -94 68t-92 -64q-27 -61 -27 -264zM870 621h271v28q0 195 -133 195q-138 0 -138 -223z" />
<glyph unicode="&#x178;" horiz-adv-x="905" d="M-57 1366h329l193 -500l207 500h293l-379 -788v-578h-301v578zM172 1602q0 45 33 76q34 31 80 30q47 0 82 -30q33 -31 33 -76q0 -49 -35 -78q-37 -31 -80 -31q-35 0 -76 31q-37 29 -37 78zM510 1602q0 45 33 76q34 31 80 30q49 0 82 -30.5t33 -75.5q0 -49 -35 -78 q-37 -31 -80 -31q-41 0 -78 31q-35 29 -35 78z" />
<glyph unicode="&#x2c6;" horiz-adv-x="940" d="M70 1133l401 313l401 -313h-219l-182 116l-182 -116h-219z" />
<glyph unicode="&#x2da;" horiz-adv-x="940" d="M279 1300q0 84 57 140q58 55 135 55t135 -55q57 -55 58 -140q0 -88 -59.5 -139t-133.5 -51q-70 0 -133 53q-59 51 -59 137zM393 1303q0 -37 25 -60q27 -23 53.5 -22.5t52.5 22.5q25 23 25 60q0 33 -24.5 57t-53.5 24t-53.5 -24t-24.5 -57z" />
<glyph unicode="&#x2dc;" horiz-adv-x="940" d="M141 1243q111 143 219 143q47 0 134 -34q86 -39 120 -39q43 0 97 71l90 -65q-100 -154 -230 -154q-47 0 -127 35q-86 39 -120 39q-43 0 -97 -61z" />
<glyph unicode="&#x2000;" horiz-adv-x="933" />
<glyph unicode="&#x2001;" horiz-adv-x="1867" />
<glyph unicode="&#x2002;" horiz-adv-x="933" />
<glyph unicode="&#x2003;" horiz-adv-x="1867" />
<glyph unicode="&#x2004;" horiz-adv-x="620" />
<glyph unicode="&#x2005;" horiz-adv-x="466" />
<glyph unicode="&#x2006;" horiz-adv-x="309" />
<glyph unicode="&#x2007;" horiz-adv-x="309" />
<glyph unicode="&#x2008;" horiz-adv-x="231" />
<glyph unicode="&#x2009;" horiz-adv-x="372" />
<glyph unicode="&#x200a;" horiz-adv-x="102" />
<glyph unicode="&#x2010;" horiz-adv-x="557" d="M76 408v221h407v-221h-407z" />
<glyph unicode="&#x2011;" horiz-adv-x="557" d="M76 408v221h407v-221h-407z" />
<glyph unicode="&#x2013;" horiz-adv-x="905" d="M82 414v209h743v-209h-743z" />
<glyph unicode="&#x2014;" horiz-adv-x="1359" d="M76 414v209h1208v-209h-1208z" />
<glyph unicode="&#x2018;" horiz-adv-x="487" d="M117 819v301l145 269h111l-115 -269h115v-301h-256z" />
<glyph unicode="&#x2019;" horiz-adv-x="487" d="M117 795l112 268h-112v303h256v-303l-148 -268h-108z" />
<glyph unicode="&#x201a;" horiz-adv-x="487" d="M117 0v301h256v-301l-148 -268h-108l112 268h-112z" />
<glyph unicode="&#x201c;" horiz-adv-x="870" d="M133 819v301l146 269h110l-113 -269h113v-301h-256zM481 819v301l148 269h108l-112 -269h112v-301h-256z" />
<glyph unicode="&#x201d;" horiz-adv-x="870" d="M133 795l113 268h-113v303h256v-303l-145 -268h-111zM481 795l113 268h-113v303h256v-303l-145 -268h-111z" />
<glyph unicode="&#x201e;" horiz-adv-x="870" d="M133 0v301h256v-301l-145 -266h-111l113 266h-113zM481 0v301h256v-301l-145 -266h-111l113 266h-113z" />
<glyph unicode="&#x2022;" horiz-adv-x="1363" d="M401 696.5q0 118.5 82 200.5q84 84 201 84q115 0 197 -82q84 -84 84 -202.5t-84 -202.5t-199 -84q-117 0 -199 84t-82 202.5z" />
<glyph unicode="&#x2026;" horiz-adv-x="1568" d="M123 0v301h278v-301h-278zM645 0v301h281v-301h-281zM1169 0v301h279v-301h-279z" />
<glyph unicode="&#x202f;" horiz-adv-x="372" />
<glyph unicode="&#x2039;" horiz-adv-x="557" d="M98 524l211 359h150l-125 -359l125 -356h-150z" />
<glyph unicode="&#x203a;" horiz-adv-x="557" d="M100 168l125 356l-125 359h150l209 -359l-209 -356h-150z" />
<glyph unicode="&#x205f;" horiz-adv-x="466" />
<glyph unicode="&#x20ac;" d="M8 477v154h96q-2 8 -2 45l2 76h-96v153h115q43 233 161.5 358.5t303.5 125.5q174 0 293 -97q117 -96 153 -278l-256 -66q-37 195 -186 195q-158 0 -186 -238h219v-153h-232l-2 -25v-96h234v-154h-224q31 -256 187 -256q74 0 119 41q41 37 69 137l256 -57 q-53 -195 -153.5 -281t-290.5 -86q-195 0 -314 129q-121 131 -157 373h-109z" />
<glyph unicode="&#x2122;" horiz-adv-x="1499" d="M27 1180v143h512v-143h-168v-633h-181v633h-163zM600 547v776h268l113 -475l125 475h260v-776h-168v647l-168 -647h-131l-151 647v-647h-148z" />
<glyph unicode="&#x2215;" horiz-adv-x="174" d="M330 1366h164l-652 -1366h-159z" />
<glyph unicode="&#xf003;" horiz-adv-x="696" d="M332 1376h233v-479h101v-166h-101v-184h-223v184h-313v156zM362 877v313l-182 -313h182z" />
</font>
</defs>
</svg>
